<?xml version="1.0" encoding="UTF-8"?>
<svg xmlns="http://www.w3.org/2000/svg" xmlns:xlink="http://www.w3.org/1999/xlink" width="80.6641pt" height="94.4258pt" viewBox="0 0 80.6641 94.4258" version="1.1">
<g id="surface1">
<path style=" stroke:none;fill-rule:nonzero;fill:rgb(93.994141%,26.063538%,27.198792%);fill-opacity:1;" d="M 23.046875 17.285156 C 23.046875 20.46875 20.46875 23.046875 17.285156 23.046875 C 14.105469 23.046875 11.523438 20.46875 11.523438 17.285156 C 11.523438 14.101562 14.105469 11.523438 17.285156 11.523438 C 20.46875 11.523438 23.046875 14.101562 23.046875 17.285156 "/>
<path style=" stroke:none;fill-rule:nonzero;fill:rgb(93.994141%,26.063538%,27.198792%);fill-opacity:1;" d="M 23.046875 57.617188 C 16.683594 57.617188 11.523438 52.457031 11.523438 46.09375 C 11.523438 39.730469 16.683594 34.570312 23.046875 34.570312 Z M 23.046875 57.617188 "/>
<path style=" stroke:none;fill-rule:nonzero;fill:rgb(93.994141%,26.063538%,27.198792%);fill-opacity:1;" d="M 46.09375 34.570312 L 46.09375 57.617188 C 39.730469 57.617188 34.570312 52.457031 34.570312 46.09375 L 34.570312 11.523438 C 40.933594 11.523438 46.09375 16.683594 46.09375 23.046875 Z M 46.09375 34.570312 "/>
<path style=" stroke:none;fill-rule:nonzero;fill:rgb(97.175598%,61.331177%,5.647278%);fill-opacity:1;" d="M 57.617188 34.570312 L 57.617188 57.617188 C 63.980469 57.617188 69.140625 52.457031 69.140625 46.09375 L 69.140625 11.523438 C 62.777344 11.523438 57.617188 16.683594 57.617188 23.046875 Z M 57.617188 34.570312 "/>
<path style=" stroke:none;fill-rule:nonzero;fill:rgb(93.994141%,26.063538%,27.198792%);fill-opacity:1;" d="M 15.90625 69.695312 L 14.921875 66.757812 L 13.9375 69.695312 Z M 16.347656 71.019531 L 13.484375 71.019531 L 13.054688 72.3125 L 11.523438 72.3125 L 14.039062 65.128906 L 15.796875 65.128906 L 18.320312 72.3125 L 16.78125 72.3125 Z M 16.347656 71.019531 "/>
<path style=" stroke:none;fill-rule:nonzero;fill:rgb(93.994141%,26.063538%,27.198792%);fill-opacity:1;" d="M 20.027344 65.128906 L 21.566406 65.128906 L 23.324219 70.648438 L 25.066406 65.128906 L 26.617188 65.128906 L 24.195312 72.316406 L 22.4375 72.316406 Z M 20.027344 65.128906 "/>
<path style=" stroke:none;fill-rule:nonzero;fill:rgb(93.994141%,26.063538%,27.198792%);fill-opacity:1;" d="M 30.777344 72.316406 L 29.359375 72.316406 L 29.359375 65.128906 L 30.777344 65.128906 Z M 30.777344 72.316406 "/>
<path style=" stroke:none;fill-rule:nonzero;fill:rgb(93.994141%,26.063538%,27.198792%);fill-opacity:1;" d="M 41.21875 69.007812 C 41.21875 70.035156 40.894531 70.867188 40.234375 71.503906 C 39.578125 72.140625 38.730469 72.457031 37.6875 72.457031 C 36.578125 72.457031 35.660156 72.097656 34.933594 71.375 C 34.203125 70.652344 33.835938 69.773438 33.835938 68.730469 C 33.835938 67.683594 34.199219 66.796875 34.921875 66.070312 C 35.644531 65.347656 36.539062 64.984375 37.605469 64.984375 C 38.277344 64.984375 38.890625 65.136719 39.445312 65.441406 C 39.996094 65.746094 40.429688 66.152344 40.738281 66.65625 L 39.527344 67.355469 C 39.355469 67.0625 39.097656 66.820312 38.75 66.636719 C 38.40625 66.453125 38.019531 66.359375 37.597656 66.359375 C 36.910156 66.359375 36.347656 66.582031 35.910156 67.03125 C 35.464844 67.480469 35.246094 68.046875 35.246094 68.730469 C 35.246094 69.40625 35.46875 69.96875 35.917969 70.410156 C 36.367188 70.851562 36.957031 71.070312 37.699219 71.070312 C 38.246094 71.070312 38.699219 70.949219 39.058594 70.707031 C 39.417969 70.464844 39.664062 70.128906 39.792969 69.707031 L 37.617188 69.707031 L 37.617188 68.453125 L 41.21875 68.453125 Z M 41.21875 69.007812 "/>
<path style=" stroke:none;fill-rule:nonzero;fill:rgb(93.994141%,26.063538%,27.198792%);fill-opacity:1;" d="M 49.855469 65.128906 L 49.855469 72.316406 L 48.777344 72.316406 L 45.699219 67.921875 L 45.699219 72.316406 L 44.28125 72.316406 L 44.28125 65.128906 L 45.359375 65.128906 L 48.441406 69.511719 L 48.441406 65.128906 Z M 49.855469 65.128906 "/>
<path style=" stroke:none;fill-rule:nonzero;fill:rgb(93.994141%,26.063538%,27.198792%);fill-opacity:1;" d="M 58.296875 70.410156 C 58.742188 69.96875 58.964844 69.40625 58.964844 68.722656 C 58.964844 68.035156 58.742188 67.472656 58.296875 67.027344 C 57.855469 66.582031 57.304688 66.359375 56.644531 66.359375 C 55.988281 66.359375 55.4375 66.582031 54.992188 67.027344 C 54.546875 67.472656 54.324219 68.035156 54.324219 68.722656 C 54.324219 69.40625 54.546875 69.96875 54.992188 70.410156 C 55.4375 70.851562 55.988281 71.070312 56.644531 71.070312 C 57.304688 71.070312 57.855469 70.851562 58.296875 70.410156 M 54 71.375 C 53.277344 70.652344 52.917969 69.765625 52.917969 68.722656 C 52.917969 67.671875 53.277344 66.789062 54 66.066406 C 54.726562 65.34375 55.605469 64.984375 56.644531 64.984375 C 57.6875 64.984375 58.570312 65.34375 59.292969 66.066406 C 60.019531 66.789062 60.382812 67.671875 60.382812 68.722656 C 60.382812 69.765625 60.019531 70.652344 59.292969 71.375 C 58.570312 72.097656 57.6875 72.457031 56.644531 72.457031 C 55.605469 72.457031 54.726562 72.097656 54 71.375 "/>
<path style=" stroke:none;fill-rule:nonzero;fill:rgb(93.994141%,26.063538%,27.198792%);fill-opacity:1;" d="M 69.007812 65.128906 L 69.007812 72.316406 L 67.933594 72.316406 L 64.851562 67.921875 L 64.851562 72.316406 L 63.433594 72.316406 L 63.433594 65.128906 L 64.511719 65.128906 L 67.59375 69.511719 L 67.59375 65.128906 Z M 69.007812 65.128906 "/>
<path style=" stroke:none;fill-rule:nonzero;fill:rgb(97.175598%,61.331177%,5.647278%);fill-opacity:1;" d="M 12.773438 82.347656 C 12.371094 81.976562 12.171875 81.484375 12.171875 80.863281 L 12.171875 77.042969 L 12.933594 77.042969 L 12.933594 80.832031 C 12.933594 81.238281 13.054688 81.558594 13.296875 81.796875 C 13.539062 82.035156 13.882812 82.15625 14.332031 82.15625 C 14.78125 82.15625 15.128906 82.035156 15.367188 81.796875 C 15.609375 81.558594 15.730469 81.238281 15.730469 80.832031 L 15.730469 77.042969 L 16.484375 77.042969 L 16.484375 80.863281 C 16.484375 81.484375 16.285156 81.976562 15.886719 82.347656 C 15.488281 82.71875 14.96875 82.902344 14.332031 82.902344 C 13.695312 82.902344 13.175781 82.71875 12.773438 82.347656 "/>
<path style=" stroke:none;fill-rule:nonzero;fill:rgb(97.175598%,61.331177%,5.647278%);fill-opacity:1;" d="M 23.640625 77.042969 L 23.640625 82.796875 L 23.023438 82.796875 L 20.0625 78.496094 L 20.0625 82.796875 L 19.296875 82.796875 L 19.296875 77.042969 L 19.914062 77.042969 L 22.875 81.332031 L 22.875 77.042969 Z M 23.640625 77.042969 "/>
<path style=" stroke:none;fill-rule:nonzero;fill:rgb(97.175598%,61.331177%,5.647278%);fill-opacity:1;" d="M 27.28125 82.796875 L 26.515625 82.796875 L 26.515625 77.042969 L 27.28125 77.042969 Z M 27.28125 82.796875 "/>
<path style=" stroke:none;fill-rule:nonzero;fill:rgb(97.175598%,61.331177%,5.647278%);fill-opacity:1;" d="M 29.609375 77.042969 L 30.429688 77.042969 L 32.097656 81.839844 L 33.761719 77.042969 L 34.589844 77.042969 L 32.527344 82.796875 L 31.664062 82.796875 Z M 29.609375 77.042969 "/>
<path style=" stroke:none;fill-rule:nonzero;fill:rgb(97.175598%,61.331177%,5.647278%);fill-opacity:1;" d="M 40.347656 82.074219 L 40.347656 82.796875 L 36.910156 82.796875 L 36.910156 77.042969 L 40.304688 77.042969 L 40.304688 77.765625 L 37.675781 77.765625 L 37.675781 79.535156 L 40.101562 79.535156 L 40.101562 80.246094 L 37.675781 80.246094 L 37.675781 82.074219 Z M 40.347656 82.074219 "/>
<path style=" stroke:none;fill-rule:nonzero;fill:rgb(97.175598%,61.331177%,5.647278%);fill-opacity:1;" d="M 43.675781 79.902344 L 45.214844 79.902344 C 45.5 79.902344 45.742188 79.796875 45.941406 79.585938 C 46.144531 79.375 46.242188 79.121094 46.242188 78.824219 C 46.242188 78.53125 46.144531 78.277344 45.941406 78.070312 C 45.742188 77.859375 45.5 77.757812 45.214844 77.757812 L 43.675781 77.757812 Z M 45.03125 80.59375 L 43.675781 80.59375 L 43.675781 82.796875 L 42.914062 82.796875 L 42.914062 77.042969 L 45.214844 77.042969 C 45.707031 77.042969 46.128906 77.214844 46.480469 77.5625 C 46.832031 77.910156 47.003906 78.332031 47.003906 78.824219 C 47.003906 79.199219 46.894531 79.539062 46.671875 79.84375 C 46.453125 80.152344 46.164062 80.367188 45.816406 80.496094 L 47.171875 82.796875 L 46.324219 82.796875 Z M 45.03125 80.59375 "/>
<path style=" stroke:none;fill-rule:nonzero;fill:rgb(97.175598%,61.331177%,5.647278%);fill-opacity:1;" d="M 49.972656 82.523438 C 49.589844 82.273438 49.324219 81.925781 49.167969 81.488281 L 49.828125 81.113281 C 50.050781 81.804688 50.566406 82.15625 51.367188 82.15625 C 51.757812 82.15625 52.0625 82.074219 52.269531 81.914062 C 52.476562 81.75 52.582031 81.535156 52.582031 81.265625 C 52.582031 80.992188 52.476562 80.789062 52.269531 80.652344 C 52.0625 80.511719 51.710938 80.367188 51.226562 80.214844 C 50.984375 80.136719 50.800781 80.078125 50.675781 80.03125 C 50.546875 79.984375 50.390625 79.914062 50.203125 79.816406 C 50.011719 79.71875 49.871094 79.621094 49.777344 79.519531 C 49.6875 79.417969 49.601562 79.285156 49.527344 79.121094 C 49.453125 78.957031 49.417969 78.769531 49.417969 78.5625 C 49.417969 78.0625 49.59375 77.667969 49.945312 77.375 C 50.292969 77.082031 50.71875 76.933594 51.226562 76.933594 C 51.679688 76.933594 52.074219 77.050781 52.414062 77.28125 C 52.75 77.507812 53.003906 77.8125 53.171875 78.191406 L 52.53125 78.5625 C 52.285156 77.96875 51.851562 77.675781 51.226562 77.675781 C 50.910156 77.675781 50.660156 77.75 50.46875 77.90625 C 50.277344 78.058594 50.183594 78.265625 50.183594 78.53125 C 50.183594 78.78125 50.273438 78.972656 50.453125 79.105469 C 50.632812 79.238281 50.945312 79.375 51.390625 79.515625 C 51.546875 79.5625 51.660156 79.601562 51.726562 79.621094 C 51.792969 79.644531 51.894531 79.683594 52.035156 79.738281 C 52.175781 79.792969 52.277344 79.835938 52.34375 79.871094 C 52.410156 79.902344 52.496094 79.949219 52.609375 80.007812 C 52.722656 80.070312 52.808594 80.125 52.863281 80.179688 C 52.914062 80.238281 52.980469 80.304688 53.054688 80.382812 C 53.128906 80.460938 53.183594 80.542969 53.214844 80.625 C 53.246094 80.707031 53.277344 80.800781 53.300781 80.910156 C 53.324219 81.015625 53.335938 81.128906 53.335938 81.25 C 53.335938 81.753906 53.15625 82.15625 52.785156 82.453125 C 52.417969 82.753906 51.941406 82.902344 51.347656 82.902344 C 50.8125 82.902344 50.351562 82.777344 49.972656 82.523438 "/>
<path style=" stroke:none;fill-rule:nonzero;fill:rgb(97.175598%,61.331177%,5.647278%);fill-opacity:1;" d="M 56.609375 82.796875 L 55.847656 82.796875 L 55.847656 77.042969 L 56.609375 77.042969 Z M 56.609375 82.796875 "/>
<path style=" stroke:none;fill-rule:nonzero;fill:rgb(97.175598%,61.331177%,5.647278%);fill-opacity:1;" d="M 63.171875 77.765625 L 61.46875 77.765625 L 61.46875 82.796875 L 60.714844 82.796875 L 60.714844 77.765625 L 59.019531 77.765625 L 59.019531 77.042969 L 63.171875 77.042969 Z M 63.171875 77.765625 "/>
<path style=" stroke:none;fill-rule:nonzero;fill:rgb(97.175598%,61.331177%,5.647278%);fill-opacity:1;" d="M 67.472656 76.480469 L 66.78125 76.480469 L 67.441406 75.398438 L 68.300781 75.398438 Z M 69.011719 82.074219 L 69.011719 82.796875 L 65.574219 82.796875 L 65.574219 77.042969 L 68.96875 77.042969 L 68.96875 77.765625 L 66.335938 77.765625 L 66.335938 79.535156 L 68.761719 79.535156 L 68.761719 80.246094 L 66.335938 80.246094 L 66.335938 82.074219 Z M 69.011719 82.074219 "/>
</g>
</svg>
