<?xml version="1.0" encoding="UTF-8"?>
<svg xmlns="http://www.w3.org/2000/svg" xmlns:xlink="http://www.w3.org/1999/xlink" width="405.329pt" height="474.482pt" viewBox="0 0 405.329 474.482" version="1.1">
<g id="surface1">
<path style=" stroke:none;fill-rule:nonzero;fill:rgb(100%,100%,100%);fill-opacity:1;" d="M 115.808594 86.855469 C 115.808594 102.847656 102.847656 115.808594 86.855469 115.808594 C 70.867188 115.808594 57.902344 102.847656 57.902344 86.855469 C 57.902344 70.867188 70.867188 57.90625 86.855469 57.90625 C 102.847656 57.90625 115.808594 70.867188 115.808594 86.855469 "/>
<path style=" stroke:none;fill-rule:nonzero;fill:rgb(100%,100%,100%);fill-opacity:1;" d="M 115.808594 289.519531 C 83.828125 289.519531 57.902344 263.597656 57.902344 231.617188 C 57.902344 199.636719 83.828125 173.710938 115.808594 173.710938 Z M 115.808594 289.519531 "/>
<path style=" stroke:none;fill-rule:nonzero;fill:rgb(100%,100%,100%);fill-opacity:1;" d="M 231.617188 173.710938 L 231.617188 289.519531 C 199.636719 289.519531 173.710938 263.597656 173.710938 231.617188 L 173.710938 57.90625 C 205.691406 57.90625 231.617188 83.828125 231.617188 115.808594 Z M 231.617188 173.710938 "/>
<path style=" stroke:none;fill-rule:nonzero;fill:rgb(100%,100%,100%);fill-opacity:1;" d="M 289.519531 173.710938 L 289.519531 289.519531 C 321.5 289.519531 347.425781 263.597656 347.425781 231.617188 L 347.425781 57.90625 C 315.445312 57.90625 289.519531 83.828125 289.519531 115.808594 Z M 289.519531 173.710938 "/>
<path style=" stroke:none;fill-rule:nonzero;fill:rgb(100%,100%,100%);fill-opacity:1;" d="M 79.933594 350.21875 L 74.980469 335.460938 L 70.027344 350.21875 Z M 82.152344 356.875 L 67.757812 356.875 L 65.589844 363.375 L 57.902344 363.375 L 70.546875 327.261719 L 79.367188 327.261719 L 92.058594 363.375 L 84.316406 363.375 Z M 82.152344 356.875 "/>
<path style=" stroke:none;fill-rule:nonzero;fill:rgb(100%,100%,100%);fill-opacity:1;" d="M 100.632812 327.261719 L 108.371094 327.261719 L 117.191406 355.015625 L 125.960938 327.261719 L 133.753906 327.261719 L 121.578125 363.375 L 112.753906 363.375 Z M 100.632812 327.261719 "/>
<path style=" stroke:none;fill-rule:nonzero;fill:rgb(100%,100%,100%);fill-opacity:1;" d="M 154.65625 363.375 L 147.535156 363.375 L 147.535156 327.261719 L 154.65625 327.261719 Z M 154.65625 363.375 "/>
<path style=" stroke:none;fill-rule:nonzero;fill:rgb(100%,100%,100%);fill-opacity:1;" d="M 207.128906 346.761719 C 207.128906 351.917969 205.480469 356.101562 202.175781 359.296875 C 198.875 362.496094 194.609375 364.09375 189.382812 364.09375 C 183.8125 364.09375 179.191406 362.28125 175.53125 358.65625 C 171.867188 355.023438 170.035156 350.597656 170.035156 345.367188 C 170.035156 340.105469 171.851562 335.65625 175.480469 332.007812 C 179.105469 328.359375 183.605469 326.535156 188.96875 326.535156 C 192.339844 326.535156 195.417969 327.304688 198.203125 328.832031 C 200.988281 330.367188 203.15625 332.402344 204.703125 334.949219 L 198.613281 338.457031 C 197.757812 336.976562 196.457031 335.773438 194.722656 334.84375 C 192.984375 333.914062 191.050781 333.449219 188.917969 333.449219 C 185.480469 333.449219 182.648438 334.578125 180.433594 336.832031 C 178.214844 339.082031 177.105469 341.929688 177.105469 345.367188 C 177.105469 348.773438 178.230469 351.585938 180.484375 353.804688 C 182.734375 356.023438 185.71875 357.132812 189.433594 357.132812 C 192.1875 357.132812 194.464844 356.519531 196.269531 355.300781 C 198.074219 354.078125 199.304688 352.40625 199.957031 350.269531 L 189.019531 350.269531 L 189.019531 343.976562 L 207.128906 343.976562 Z M 207.128906 346.761719 "/>
<path style=" stroke:none;fill-rule:nonzero;fill:rgb(100%,100%,100%);fill-opacity:1;" d="M 250.527344 327.261719 L 250.527344 363.375 L 245.109375 363.375 L 229.632812 341.292969 L 229.632812 363.375 L 222.511719 363.375 L 222.511719 327.261719 L 227.929688 327.261719 L 243.410156 349.289062 L 243.410156 327.261719 Z M 250.527344 327.261719 "/>
<path style=" stroke:none;fill-rule:nonzero;fill:rgb(100%,100%,100%);fill-opacity:1;" d="M 292.945312 353.804688 C 295.179688 351.585938 296.300781 348.757812 296.300781 345.316406 C 296.300781 341.878906 295.179688 339.039062 292.945312 336.804688 C 290.710938 334.570312 287.941406 333.449219 284.636719 333.449219 C 281.339844 333.449219 278.570312 334.570312 276.335938 336.804688 C 274.097656 339.039062 272.980469 341.878906 272.980469 345.316406 C 272.980469 348.757812 274.097656 351.585938 276.335938 353.804688 C 278.570312 356.023438 281.339844 357.132812 284.636719 357.132812 C 287.941406 357.132812 290.710938 356.023438 292.945312 353.804688 M 271.355469 358.65625 C 267.726562 355.023438 265.914062 350.578125 265.914062 345.316406 C 265.914062 340.054688 267.726562 335.609375 271.355469 331.980469 C 274.980469 328.355469 279.414062 326.535156 284.636719 326.535156 C 289.867188 326.535156 294.300781 328.355469 297.949219 331.980469 C 301.59375 335.609375 303.417969 340.054688 303.417969 345.316406 C 303.417969 350.578125 301.59375 355.023438 297.949219 358.65625 C 294.300781 362.28125 289.867188 364.09375 284.636719 364.09375 C 279.414062 364.09375 274.980469 362.28125 271.355469 358.65625 "/>
<path style=" stroke:none;fill-rule:nonzero;fill:rgb(100%,100%,100%);fill-opacity:1;" d="M 346.765625 327.261719 L 346.765625 363.375 L 341.347656 363.375 L 325.871094 341.292969 L 325.871094 363.375 L 318.75 363.375 L 318.75 327.261719 L 324.167969 327.261719 L 339.648438 349.289062 L 339.648438 327.261719 Z M 346.765625 327.261719 "/>
<path style=" stroke:none;fill-rule:nonzero;fill:rgb(100%,100%,100%);fill-opacity:1;" d="M 64.191406 413.789062 C 62.167969 411.933594 61.15625 409.445312 61.15625 406.332031 L 61.15625 387.125 L 64.996094 387.125 L 64.996094 406.167969 C 64.996094 408.207031 65.601562 409.824219 66.8125 411.023438 C 68.023438 412.222656 69.757812 412.820312 72.019531 412.820312 C 74.277344 412.820312 76.011719 412.222656 77.222656 411.023438 C 78.433594 409.824219 79.039062 408.207031 79.039062 406.167969 L 79.039062 387.125 L 82.839844 387.125 L 82.839844 406.332031 C 82.839844 409.445312 81.835938 411.933594 79.824219 413.789062 C 77.816406 415.648438 75.210938 416.578125 72.019531 416.578125 C 68.824219 416.578125 66.214844 415.648438 64.191406 413.789062 "/>
<path style=" stroke:none;fill-rule:nonzero;fill:rgb(100%,100%,100%);fill-opacity:1;" d="M 118.785156 387.125 L 118.785156 416.039062 L 115.6875 416.039062 L 100.816406 394.4375 L 100.816406 416.039062 L 96.976562 416.039062 L 96.976562 387.125 L 100.074219 387.125 L 114.945312 408.6875 L 114.945312 387.125 Z M 118.785156 387.125 "/>
<path style=" stroke:none;fill-rule:nonzero;fill:rgb(100%,100%,100%);fill-opacity:1;" d="M 137.089844 416.039062 L 133.25 416.039062 L 133.25 387.128906 L 137.089844 387.128906 Z M 137.089844 416.039062 "/>
<path style=" stroke:none;fill-rule:nonzero;fill:rgb(100%,100%,100%);fill-opacity:1;" d="M 148.785156 387.125 L 152.914062 387.125 L 161.300781 411.25 L 169.644531 387.125 L 173.816406 387.125 L 163.449219 416.039062 L 159.113281 416.039062 Z M 148.785156 387.125 "/>
<path style=" stroke:none;fill-rule:nonzero;fill:rgb(100%,100%,100%);fill-opacity:1;" d="M 202.738281 412.40625 L 202.738281 416.042969 L 185.472656 416.042969 L 185.472656 387.128906 L 202.53125 387.128906 L 202.53125 390.761719 L 189.3125 390.761719 L 189.3125 399.644531 L 201.5 399.644531 L 201.5 403.238281 L 189.3125 403.238281 L 189.3125 412.40625 Z M 202.738281 412.40625 "/>
<path style=" stroke:none;fill-rule:nonzero;fill:rgb(100%,100%,100%);fill-opacity:1;" d="M 219.472656 401.5 L 227.199219 401.5 C 228.632812 401.5 229.847656 400.972656 230.855469 399.910156 C 231.863281 398.851562 232.363281 397.578125 232.363281 396.089844 C 232.363281 394.601562 231.863281 393.335938 230.855469 392.289062 C 229.847656 391.242188 228.632812 390.722656 227.199219 390.722656 L 219.472656 390.722656 Z M 226.289062 404.972656 L 219.472656 404.972656 L 219.472656 416.039062 L 215.632812 416.039062 L 215.632812 387.125 L 227.199219 387.125 C 229.679688 387.125 231.796875 388 233.5625 389.75 C 235.324219 391.5 236.203125 393.609375 236.203125 396.089844 C 236.203125 397.960938 235.648438 399.671875 234.535156 401.210938 C 233.414062 402.753906 231.976562 403.84375 230.214844 404.476562 L 237.03125 416.039062 L 232.777344 416.039062 Z M 226.289062 404.972656 "/>
<path style=" stroke:none;fill-rule:nonzero;fill:rgb(100%,100%,100%);fill-opacity:1;" d="M 251.101562 414.679688 C 249.191406 413.410156 247.847656 411.675781 247.078125 409.472656 L 250.378906 407.574219 C 251.507812 411.074219 254.085938 412.820312 258.105469 412.820312 C 260.085938 412.820312 261.601562 412.414062 262.648438 411.601562 C 263.695312 410.789062 264.21875 409.707031 264.21875 408.359375 C 264.21875 406.984375 263.695312 405.949219 262.648438 405.257812 C 261.601562 404.574219 259.851562 403.839844 257.40625 403.074219 C 256.191406 402.683594 255.269531 402.375 254.632812 402.140625 C 254 401.90625 253.210938 401.550781 252.257812 401.066406 C 251.308594 400.585938 250.601562 400.089844 250.132812 399.582031 C 249.664062 399.074219 249.246094 398.40625 248.875 397.578125 C 248.5 396.75 248.316406 395.816406 248.316406 394.769531 C 248.316406 392.261719 249.199219 390.273438 250.957031 388.796875 C 252.71875 387.328125 254.871094 386.589844 257.40625 386.589844 C 259.691406 386.589844 261.675781 387.167969 263.371094 388.324219 C 265.066406 389.480469 266.335938 391.007812 267.191406 392.910156 L 263.96875 394.769531 C 262.734375 391.792969 260.542969 390.308594 257.40625 390.308594 C 255.832031 390.308594 254.566406 390.691406 253.601562 391.464844 C 252.636719 392.234375 252.160156 393.28125 252.160156 394.601562 C 252.160156 395.871094 252.613281 396.832031 253.519531 397.496094 C 254.429688 398.15625 256 398.84375 258.230469 399.5625 C 259.027344 399.808594 259.589844 399.988281 259.921875 400.097656 C 260.25 400.207031 260.769531 400.398438 261.46875 400.675781 C 262.171875 400.949219 262.691406 401.171875 263.019531 401.335938 C 263.351562 401.5 263.796875 401.738281 264.363281 402.039062 C 264.925781 402.339844 265.347656 402.628906 265.625 402.90625 C 265.898438 403.179688 266.21875 403.519531 266.59375 403.917969 C 266.964844 404.316406 267.234375 404.722656 267.398438 405.136719 C 267.566406 405.550781 267.707031 406.023438 267.832031 406.5625 C 267.957031 407.101562 268.019531 407.667969 268.019531 408.277344 C 268.019531 410.808594 267.09375 412.824219 265.25 414.324219 C 263.40625 415.828125 261 416.578125 258.023438 416.578125 C 255.324219 416.578125 253.015625 415.945312 251.101562 414.679688 "/>
<path style=" stroke:none;fill-rule:nonzero;fill:rgb(100%,100%,100%);fill-opacity:1;" d="M 284.464844 416.039062 L 280.621094 416.039062 L 280.621094 387.128906 L 284.464844 387.128906 Z M 284.464844 416.039062 "/>
<path style=" stroke:none;fill-rule:nonzero;fill:rgb(100%,100%,100%);fill-opacity:1;" d="M 317.429688 390.761719 L 308.878906 390.761719 L 308.878906 416.039062 L 305.082031 416.039062 L 305.082031 390.761719 L 296.574219 390.761719 L 296.574219 387.125 L 317.429688 387.125 Z M 317.429688 390.761719 "/>
<path style=" stroke:none;fill-rule:nonzero;fill:rgb(100%,100%,100%);fill-opacity:1;" d="M 339.042969 384.316406 L 335.574219 384.316406 L 338.878906 378.867188 L 343.214844 378.867188 Z M 346.769531 412.40625 L 346.769531 416.042969 L 329.5 416.042969 L 329.5 387.128906 L 346.5625 387.128906 L 346.5625 390.761719 L 333.34375 390.761719 L 333.34375 399.644531 L 345.527344 399.644531 L 345.527344 403.238281 L 333.34375 403.238281 L 333.34375 412.40625 Z M 346.769531 412.40625 "/>
</g>
</svg>
