<svg id="Layer_1" data-name="Layer 1" xmlns="http://www.w3.org/2000/svg" xmlns:xlink="http://www.w3.org/1999/xlink" viewBox="0 0 218.65 202.99"><defs><style>.cls-1{fill:#fff;}.cls-2{fill:#ffd21e;}.cls-3{fill:#ff9d00;}.cls-4{fill:#32343d;}.cls-5{mask:url(#mask);}.cls-6{fill:#ff323d;}</style><mask id="mask" x="77.56" y="96.09" width="60.2" height="57.88" maskUnits="userSpaceOnUse"><g transform="translate(0)"><g id="mask0"><path class="cls-1" d="M107.66,130.33c22.76,0,30.1-20.29,30.1-30.71,0-5.42-3.64-3.71-9.47-.83-5.39,2.67-12.64,6.35-20.63,6.35-16.62,0-30.1-15.94-30.1-5.52S84.91,130.33,107.66,130.33Z"/></g></g></mask></defs><title>face-smiling-hands</title><path class="cls-1" d="M217.16,162.26a19.13,19.13,0,0,1-1,15,24.49,24.49,0,0,1-7,8.34A58.31,58.31,0,0,1,196,193a152,152,0,0,1-17.5,6.13A108.07,108.07,0,0,1,152.08,203c-12.55.12-23.37-2.84-31.05-10.42a98.74,98.74,0,0,1-12.06.77,92.14,92.14,0,0,1-11.42-.7c-7.71,7.53-18.48,10.47-31,10.35a108.36,108.36,0,0,1-26.46-3.89A153.26,153.26,0,0,1,22.63,193a57.41,57.41,0,0,1-13.15-7.41,24.38,24.38,0,0,1-7-8.34,19.16,19.16,0,0,1-1-15,19.76,19.76,0,0,1-.76-13,20.32,20.32,0,0,1,2.73-6,23.59,23.59,0,0,1-.6-3,20.08,20.08,0,0,1,5.46-16.62,19.12,19.12,0,0,1,6.53-4.8A96.69,96.69,0,0,1,159.09,14c2.64,1.63,5.23,3.36,7.71,5.21,1.23.93,2.46,1.88,3.64,2.87s2.38,2,3.52,3a96,96,0,0,1,9.58,10.07c1,1.18,2,2.41,2.87,3.66a86.79,86.79,0,0,1,5.21,7.71A98.56,98.56,0,0,1,198,59c1.22,2.89,2.29,5.86,3.24,8.89a96.68,96.68,0,0,1,3.24,14c.23,1.6.44,3.22.6,4.84a95.92,95.92,0,0,1-2,31.72,19.09,19.09,0,0,1,7.2,5.07,20.12,20.12,0,0,1,5.46,16.64,24,24,0,0,1-.6,3,20.32,20.32,0,0,1,2.73,6A20,20,0,0,1,217.16,162.26Z" transform="translate(0)"/><path class="cls-2" d="M108.24,177.12A80.46,80.46,0,1,0,27.78,96.66,80.46,80.46,0,0,0,108.24,177.12Z" transform="translate(0)"/><path class="cls-3" d="M188.7,96.66a80.46,80.46,0,1,0-80.46,80.46A80.45,80.45,0,0,0,188.7,96.66Zm-170.18,0a89.72,89.72,0,1,1,89.72,89.72A89.71,89.71,0,0,1,18.52,96.66Z" transform="translate(0)"/><path class="cls-4" d="M134.38,74.76c3,1,4.13,7.11,7.11,5.53a11.58,11.58,0,1,0-15.66-4.79C127.25,78.17,131.74,73.83,134.38,74.76Z" transform="translate(0)"/><path class="cls-4" d="M79.84,74.76c-3,1-4.12,7.11-7.11,5.53A11.58,11.58,0,1,1,88.39,75.5C87,78.17,82.48,73.83,79.84,74.76Z" transform="translate(0)"/><path class="cls-4" d="M107.66,130.33c22.76,0,30.1-20.29,30.1-30.71,0-5.42-3.64-3.71-9.47-.83-5.39,2.67-12.64,6.35-20.63,6.35-16.62,0-30.1-15.94-30.1-5.52S84.91,130.33,107.66,130.33Z" transform="translate(0)"/><g class="cls-5"><path class="cls-6" d="M108.24,154a20.09,20.09,0,0,0,7-38.92l-.85-.29c-1.93-.62-4,6-6.12,6-2,0-3.92-6.67-5.74-6.13A20.08,20.08,0,0,0,108.24,154Z" transform="translate(0)"/></g><path class="cls-2" d="M162.65,85.67a7.53,7.53,0,1,0-7.52-7.53A7.53,7.53,0,0,0,162.65,85.67Z" transform="translate(0)"/><path class="cls-2" d="M55,85.67a7.53,7.53,0,1,0-7.53-7.53A7.53,7.53,0,0,0,55,85.67Z" transform="translate(0)"/><path class="cls-3" d="M39.5,111.13a12.08,12.08,0,0,0-9.43,4.34A13.77,13.77,0,0,0,27,124.16a16.45,16.45,0,0,0-4.49-.7,12.21,12.21,0,0,0-9.13,3.87,13.21,13.21,0,0,0-1.84,16.21A12.27,12.27,0,0,0,7.39,150a13.59,13.59,0,0,0,1.83,11c-.19.3-.36.6-.53.91a12.13,12.13,0,0,0-.32,10.72c2.38,5.37,8.27,9.6,19.72,14.14,7.13,2.82,13.65,4.63,13.7,4.64a102.35,102.35,0,0,0,25.31,3.69c13.56,0,23.26-4.15,28.85-12.34,9-13.18,7.7-25.24-3.93-36.86-6.44-6.44-10.72-15.92-11.61-18-1.79-6.16-6.54-13-14.44-13h0a12.85,12.85,0,0,0-10.65,5.69,30.21,30.21,0,0,0-6.64-6.5A17.17,17.17,0,0,0,39.5,111.13Zm0,9.27a8.27,8.27,0,0,1,4.22,1.51c4.94,3.13,14.47,19.51,18,25.88a5.61,5.61,0,0,0,5,3c3.57,0,6.36-3.55.33-8.06-9.07-6.78-5.89-17.88-1.56-18.56a3.64,3.64,0,0,1,.56,0c3.93,0,5.67,6.79,5.67,6.79s5.09,12.78,13.83,21.52,9.2,15.75,2.82,25.09c-4.34,6.37-12.66,8.3-21.19,8.3-8.84,0-17.9-2.07-23-3.39-.25-.07-31.15-8.79-27.23-16.22A3.22,3.22,0,0,1,20,164.5c5.51,0,15.54,8.2,19.84,8.2a1.78,1.78,0,0,0,1.92-1.41c1.84-6.58-27.91-9.35-25.4-18.89A3,3,0,0,1,19.67,150c7.28,0,23.62,12.81,27.05,12.81a.58.58,0,0,0,.55-.24c1.71-2.77.77-4.7-11.32-12s-20.58-11.72-15.75-17a3,3,0,0,1,2.3-.87c7.34,0,24.68,15.78,24.68,15.78s4.69,4.87,7.52,4.87a1.72,1.72,0,0,0,1.58-.89c2-3.38-18.65-19-19.81-25.49C35.68,122.61,37,120.4,39.5,120.4Z" transform="translate(0)"/><path class="cls-2" d="M88.29,177.56c6.38-9.34,5.92-16.36-2.82-25.1S71.64,131,71.64,131s-1.9-7.42-6.23-6.74S57.9,136,67,142.77s-1.81,11.39-5.3,5-13-22.75-18-25.88-8.42-1.38-7.25,5.08,21.82,22.11,19.81,25.49-9.1-4-9.1-4S25,128.34,20.2,133.59s3.66,9.66,15.75,17,13,9.25,11.32,12S18.85,142.85,16.35,152.4s27.24,12.31,25.4,18.89-20.95-12.46-24.86-5,27,16.15,27.23,16.22C54.1,185.06,79.44,190.54,88.29,177.56Z" transform="translate(0)"/><path class="cls-3" d="M178.13,111.13a12.1,12.1,0,0,1,9.44,4.34,13.88,13.88,0,0,1,3.08,8.69,16.45,16.45,0,0,1,4.49-.7,12.21,12.21,0,0,1,9.13,3.87,13.21,13.21,0,0,1,1.84,16.21,12.27,12.27,0,0,1,4.14,6.5,13.59,13.59,0,0,1-1.83,11c.18.3.36.6.53.91a12.13,12.13,0,0,1,.32,10.72c-2.38,5.37-8.27,9.6-19.73,14.14-7.12,2.82-13.64,4.63-13.69,4.64a102.35,102.35,0,0,1-25.31,3.69c-13.56,0-23.26-4.15-28.85-12.34-9-13.18-7.7-25.24,3.93-36.86,6.44-6.44,10.72-15.92,11.61-18,1.79-6.16,6.54-13,14.44-13h0a12.85,12.85,0,0,1,10.65,5.69,30.21,30.21,0,0,1,6.64-6.5A17.14,17.14,0,0,1,178.13,111.13Zm0,9.27a8.27,8.27,0,0,0-4.21,1.51c-4.94,3.13-14.47,19.51-18,25.88a5.62,5.62,0,0,1-5,3c-3.57,0-6.36-3.55-.33-8.06,9.07-6.78,5.89-17.88,1.56-18.56a3.64,3.64,0,0,0-.56,0c-3.93,0-5.67,6.79-5.67,6.79s-5.09,12.78-13.83,21.52-9.2,15.75-2.82,25.09c4.34,6.37,12.66,8.3,21.19,8.3,8.84,0,17.9-2.07,23-3.39.25-.07,31.14-8.79,27.23-16.22a3.22,3.22,0,0,0-3.1-1.75c-5.51,0-15.54,8.2-19.85,8.2a1.79,1.79,0,0,1-1.92-1.41c-1.83-6.58,27.92-9.35,25.41-18.89A3,3,0,0,0,198,150c-7.29,0-23.62,12.81-27.05,12.81a.58.58,0,0,1-.55-.24c-1.71-2.77-.77-4.7,11.32-12s20.58-11.72,15.75-17a3,3,0,0,0-2.3-.87c-7.34,0-24.68,15.78-24.68,15.78s-4.69,4.87-7.52,4.87a1.72,1.72,0,0,1-1.58-.89c-2-3.38,18.65-19,19.81-25.49C182,122.61,180.62,120.4,178.13,120.4Z" transform="translate(0)"/><path class="cls-2" d="M129.35,177.56c-6.38-9.34-5.92-16.36,2.82-25.1S146,131,146,131s1.9-7.42,6.23-6.74,7.51,11.78-1.56,18.56,1.81,11.39,5.29,5,13-22.75,18-25.88,8.42-1.38,7.25,5.08-21.82,22.11-19.81,25.49,9.1-4,9.1-4,22.16-20.16,27-14.91-3.66,9.66-15.75,17-13,9.25-11.32,12,28.42-19.74,30.92-10.19-27.24,12.31-25.41,18.89,21-12.46,24.87-5-27,16.15-27.23,16.22C163.54,185.06,138.2,190.54,129.35,177.56Z" transform="translate(0)"/></svg>